<svg xmlns="http://www.w3.org/2000/svg">
    <symbol id="order-icon" viewBox="0 0 20 20" fill="none">
        <g>
            <path d="M13.3333 8.33333C13.3333 9.21739 12.9821 10.0652 12.357 10.6904C11.7319 11.3155 10.8841 11.6667 10 11.6667C9.11594 11.6667 8.2681 11.3155 7.64298 10.6904C7.01786 10.0652 6.66667 9.21739 6.66667 8.33333M2.58583 5.02833H17.4142M2.83333 4.55583C2.61696 4.84433 2.5 5.19522 2.5 5.55583V16.6667C2.5 17.1087 2.67559 17.5326 2.98816 17.8452C3.30072 18.1577 3.72464 18.3333 4.16667 18.3333H15.8333C16.2754 18.3333 16.6993 18.1577 17.0118 17.8452C17.3244 17.5326 17.5 17.1087 17.5 16.6667V5.55583C17.5 5.19522 17.383 4.84433 17.1667 4.55583L15.5 2.33333C15.3448 2.12634 15.1434 1.95834 14.912 1.84262C14.6806 1.72691 14.4254 1.66667 14.1667 1.66667H5.83333C5.57459 1.66667 5.3194 1.72691 5.08798 1.84262C4.85655 1.95834 4.65525 2.12634 4.5 2.33333L2.83333 4.55583Z" stroke-width="2" stroke-linecap="round" stroke-linejoin="round"/>
        </g>
    </symbol>

    <symbol id="play-icon" viewBox="0 0 24 24" fill="none">
        <g>
            <path d="M9 9.003C8.99946 8.82553 9.04617 8.65112 9.13531 8.49767C9.22445 8.34422 9.35283 8.21725 9.50726 8.1298C9.66169 8.04236 9.8366 7.99759 10.0141 8.00008C10.1915 8.00258 10.3651 8.05225 10.517 8.144L15.514 11.141C15.6628 11.2297 15.786 11.3554 15.8715 11.506C15.957 11.6566 16.002 11.8268 16.002 12C16.002 12.1732 15.957 12.3434 15.8715 12.494C15.786 12.6446 15.6628 12.7703 15.514 12.859L10.517 15.856C10.365 15.9478 10.1913 15.9975 10.0138 15.9999C9.83627 16.0024 9.66128 15.9575 9.50682 15.87C9.35236 15.7824 9.224 15.6553 9.13493 15.5017C9.04586 15.3481 8.99929 15.1736 9 14.996V9.003Z" stroke-width="2" stroke-linecap="round" stroke-linejoin="round"/>
            <path d="M12 22C17.5228 22 22 17.5228 22 12C22 6.47715 17.5228 2 12 2C6.47715 2 2 6.47715 2 12C2 17.5228 6.47715 22 12 22Z" stroke-width="2" stroke-linecap="round" stroke-linejoin="round"/>
        </g>
    </symbol>

    <symbol id="arrow-down" viewBox="0 0 24 24" fill="none">
        <path d="M12 5V19M12 19L19 12M12 19L5 12" stroke-width="2" stroke-linecap="round" stroke-linejoin="round"/>
    </symbol>

    <symbol id="ruler-icon" viewBox="0 0 45 45" fill="none">
        <g>
            <path d="M18.75 28.125V22.5M26.25 28.125V22.5M33.75 28.125V22.5M3.75 15V7.5M41.25 11.25H3.75M41.25 15V7.5M11.25 28.125V22.5M7.5 22.5H37.5C39.5711 22.5 41.25 24.1789 41.25 26.25V33.75C41.25 35.8211 39.5711 37.5 37.5 37.5H7.5C5.42893 37.5 3.75 35.8211 3.75 33.75V26.25C3.75 24.1789 5.42893 22.5 7.5 22.5Z"  stroke-width="2" stroke-linecap="round" stroke-linejoin="round"/>
        </g>
    </symbol>

    <symbol id="table-rows-icon" viewBox="0 0 45 45" fill="none">
        <g>
            <path d="M26.25 18.75H30M28.125 41.25V26.25M28.125 3.75V11.25M3.75 18.75H7.5M37.5 18.75H41.25M5.625 35.625H39.375M5.625 41.25V30C5.625 29.5075 5.722 29.0199 5.91045 28.5649C6.09891 28.11 6.37513 27.6966 6.72335 27.3484C7.07157 27.0001 7.48497 26.7239 7.93994 26.5355C8.39491 26.347 8.88254 26.25 9.375 26.25H35.625C36.1175 26.25 36.6051 26.347 37.0601 26.5355C37.515 26.7239 37.9284 27.0001 38.2766 27.3484C38.6249 27.6966 38.9011 28.11 39.0895 28.5649C39.278 29.0199 39.375 29.5075 39.375 30V41.25M5.625 3.75V7.5C5.625 8.49456 6.02009 9.44839 6.72335 10.1517C7.42661 10.8549 8.38044 11.25 9.375 11.25H35.625C36.6196 11.25 37.5734 10.8549 38.2766 10.1517C38.9799 9.44839 39.375 8.49456 39.375 7.5V3.75M15 18.75H18.75M16.875 41.25V26.25M16.875 3.75V11.25"  stroke-width="2" stroke-linecap="round" stroke-linejoin="round"/>
        </g>
    </symbol>

    <symbol id="battery-full-icon" viewBox="0 0 45 45" fill="none">
        <g>
            <path d="M18.75 18.75V26.25M26.25 18.75V26.25M41.25 26.25V18.75M11.25 18.75V26.25M7.5 11.25H30C32.0711 11.25 33.75 12.9289 33.75 15V30C33.75 32.0711 32.0711 33.75 30 33.75H7.5C5.42893 33.75 3.75 32.0711 3.75 30V15C3.75 12.9289 5.42893 11.25 7.5 11.25Z"  stroke-width="2" stroke-linecap="round" stroke-linejoin="round"/>
        </g>
    </symbol>

    <symbol id="monitor-cog-icon" viewBox="0 0 45 45" fill="none">
        <g>
            <path d="M22.5 31.8751V39.3751M26.8219 14.1188L28.5525 13.4026M28.5525 9.09757L26.8219 8.37944M31.5975 6.05257L30.8794 4.32007M31.5975 16.4476L30.8794 18.1782M35.9025 6.05257L36.6206 4.32007M36.6188 18.1801L35.9025 16.4476M38.9475 9.09757L40.68 8.37944M38.9475 13.4026L40.68 14.1207M41.25 24.3751V28.1251C41.25 29.1196 40.8549 30.0735 40.1516 30.7767C39.4484 31.48 38.4946 31.8751 37.5 31.8751H7.5C6.50544 31.8751 5.55161 31.48 4.84835 30.7767C4.14509 30.0735 3.75 29.1196 3.75 28.1251V9.37507C3.75 8.38051 4.14509 7.42668 4.84835 6.72342C5.55161 6.02016 6.50544 5.62507 7.5 5.62507H20.625M15 39.3751H30M39.375 11.2501C39.375 14.3567 36.8566 16.8751 33.75 16.8751C30.6434 16.8751 28.125 14.3567 28.125 11.2501C28.125 8.14347 30.6434 5.62507 33.75 5.62507C36.8566 5.62507 39.375 8.14347 39.375 11.2501Z" stroke-width="2" stroke-linecap="round" stroke-linejoin="round"/>
        </g>
    </symbol>


    <symbol id="shield-icon" viewBox="0 0 45 45" fill="none">
        <g>
            <path d="M16.875 22.5001L20.625 26.2501L28.125 18.7501M37.5 24.3751C37.5 33.7501 30.9375 38.4376 23.1375 41.1564C22.7291 41.2948 22.2854 41.2881 21.8813 41.1376C14.0625 38.4376 7.5 33.7501 7.5 24.3751V11.2501C7.5 10.7528 7.69754 10.2759 8.04918 9.92429C8.40081 9.57266 8.87772 9.37511 9.375 9.37511C13.125 9.37511 17.8125 7.12511 21.075 4.27511C21.4722 3.93573 21.9775 3.74927 22.5 3.74927C23.0225 3.74927 23.5278 3.93573 23.925 4.27511C27.2063 7.14386 31.875 9.37511 35.625 9.37511C36.1223 9.37511 36.5992 9.57266 36.9508 9.92429C37.3025 10.2759 37.5 10.7528 37.5 11.2501V24.3751Z" stroke-width="2" stroke-linecap="round" stroke-linejoin="round"/>
        </g>
    </symbol>

    <symbol id="cpu-icon" viewBox="0 0 45 45" fill="none">
        <g>
            <path d="M22.5 37.5V41.25M22.5 3.75V7.5M31.875 37.5V41.25M31.875 3.75V7.5M3.75 22.5H7.5M3.75 31.875H7.5M3.75 13.125H7.5M37.5 22.5H41.25M37.5 31.875H41.25M37.5 13.125H41.25M13.125 37.5V41.25M13.125 3.75V7.5M11.25 7.5H33.75C35.8211 7.5 37.5 9.17893 37.5 11.25V33.75C37.5 35.8211 35.8211 37.5 33.75 37.5H11.25C9.17893 37.5 7.5 35.8211 7.5 33.75V11.25C7.5 9.17893 9.17893 7.5 11.25 7.5ZM16.875 15H28.125C29.1605 15 30 15.8395 30 16.875V28.125C30 29.1605 29.1605 30 28.125 30H16.875C15.8395 30 15 29.1605 15 28.125V16.875C15 15.8395 15.8395 15 16.875 15Z" stroke-width="2" stroke-linecap="round" stroke-linejoin="round"/>
        </g>
    </symbol>

    <symbol id="circle-gauge-icon" viewBox="0 0 45 45" fill="none">
        <g>
            <path d="M29.25 5.06239C25.2397 3.50442 20.8157 3.37295 16.72 4.69005C12.6243 6.00715 9.10611 8.69268 6.75565 12.2961C4.4052 15.8996 3.36546 20.2018 3.81086 24.4809C4.25626 28.7601 6.1597 32.7559 9.20186 35.798C12.244 38.8402 16.2398 40.7436 20.519 41.189C24.7981 41.6344 29.1003 40.5947 32.7038 38.2443C36.3072 35.8938 38.9928 32.3756 40.3099 28.2799C41.627 24.1842 41.4955 19.7602 39.9375 15.7499M25.125 19.8749L35.625 9.37489M26.25 22.4999C26.25 24.571 24.5711 26.2499 22.5 26.2499C20.4289 26.2499 18.75 24.571 18.75 22.4999C18.75 20.4288 20.4289 18.7499 22.5 18.7499C24.5711 18.7499 26.25 20.4288 26.25 22.4999Z"  stroke-width="2" stroke-linecap="round" stroke-linejoin="round"/>
        </g>
    </symbol>

    <symbol id="memory-stick-icon" viewBox="0 0 45 45" fill="none">
        <g>
            <path d="M22.5 22.5V18.75M22.5 33.75V30M30 22.5V18.75M30 33.75V30M3.75 20.625H6.5625M37.5 33.75V30M37.5 30C39.5711 30 41.25 28.3211 41.25 26.25V15C41.25 12.9289 39.5711 11.25 37.5 11.25H7.5C5.42893 11.25 3.75 12.9289 3.75 15V26.25C3.75 28.3211 5.42893 30 7.5 30M37.5 30H7.5M38.4375 20.625H41.25M7.5 33.75V30M15 22.5V18.75M15 33.75V30" stroke-width="2" stroke-linecap="round" stroke-linejoin="round"/>
        </g>
    </symbol>

    <symbol id="external-link-icon" viewBox="0 0 24 24" fill="none">
        <g>
            <path d="M15 3H21M21 3V9M21 3L10 14M18 13V19C18 19.5304 17.7893 20.0391 17.4142 20.4142C17.0391 20.7893 16.5304 21 16 21H5C4.46957 21 3.96086 20.7893 3.58579 20.4142C3.21071 20.0391 3 19.5304 3 19V8C3 7.46957 3.21071 6.96086 3.58579 6.58579C3.96086 6.21071 4.46957 6 5 6H11" stroke-width="2" stroke-linecap="round" stroke-linejoin="round"/>
        </g>
    </symbol>

    <symbol id="slider-arrow-icon" viewBox="0 0 45 45" fill="none">
        <g>
            <path d="M22.5 30L30 22.5M30 22.5L22.5 15M30 22.5H15M41.25 22.5C41.25 32.8553 32.8553 41.25 22.5 41.25C12.1447 41.25 3.75 32.8553 3.75 22.5C3.75 12.1447 12.1447 3.75 22.5 3.75C32.8553 3.75 41.25 12.1447 41.25 22.5Z" stroke-width="2" stroke-linecap="round" stroke-linejoin="round"/>
        </g>
    </symbol>

    <symbol id="shopping-bag-icon" viewBox="0 0 34 34" fill="none">
        <g>
            <path d="M22.6667 14.1668C22.6667 15.6697 22.0696 17.1111 21.0069 18.1738C19.9442 19.2365 18.5029 19.8335 17 19.8335C15.4971 19.8335 14.0558 19.2365 12.9931 18.1738C11.9304 17.1111 11.3333 15.6697 11.3333 14.1668M4.39592 8.54833H29.6041M4.81667 7.74508C4.44884 8.23552 4.25 8.83203 4.25 9.44508V28.3335C4.25 29.0849 4.54851 29.8056 5.07986 30.337C5.61122 30.8683 6.33189 31.1668 7.08333 31.1668H26.9167C27.6681 31.1668 28.3888 30.8683 28.9201 30.337C29.4515 29.8056 29.75 29.0849 29.75 28.3335V9.44508C29.75 8.83203 29.5512 8.23552 29.1833 7.74508L26.35 3.96683C26.0861 3.61494 25.7439 3.32933 25.3504 3.13262C24.957 2.93591 24.5232 2.8335 24.0833 2.8335H9.91667C9.47681 2.8335 9.04298 2.93591 8.64956 3.13262C8.25614 3.32933 7.91392 3.61494 7.65 3.96683L4.81667 7.74508Z" stroke-width="2" stroke-linecap="round" stroke-linejoin="round"/>
        </g>
    </symbol>

    <symbol id="star-icon" viewBox="0 0 32 32" fill="none">
        <g>
            <path d="M15.3666 3.06018C15.4251 2.94213 15.5153 2.84276 15.6272 2.77328C15.7392 2.70381 15.8683 2.66699 16 2.66699C16.1317 2.66699 16.2608 2.70381 16.3727 2.77328C16.4846 2.84276 16.5749 2.94213 16.6333 3.06018L19.7133 9.29885C19.9162 9.70947 20.2157 10.0647 20.5861 10.3341C20.9566 10.6035 21.3868 10.779 21.84 10.8455L28.728 11.8535C28.8585 11.8724 28.9811 11.9275 29.082 12.0124C29.1828 12.0974 29.2579 12.2089 29.2987 12.3343C29.3395 12.4597 29.3443 12.5941 29.3128 12.7221C29.2812 12.8501 29.2144 12.9668 29.12 13.0588L24.1386 17.9095C23.8101 18.2297 23.5643 18.6248 23.4224 19.061C23.2805 19.4972 23.2467 19.9614 23.324 20.4135L24.5 27.2668C24.523 27.3973 24.5089 27.5316 24.4593 27.6544C24.4097 27.7773 24.3266 27.8837 24.2194 27.9615C24.1122 28.0394 23.9853 28.0855 23.8531 28.0947C23.721 28.1039 23.5889 28.0758 23.472 28.0135L17.3146 24.7762C16.9089 24.5632 16.4576 24.4518 15.9993 24.4518C15.5411 24.4518 15.0897 24.5632 14.684 24.7762L8.52798 28.0135C8.41109 28.0754 8.27918 28.1032 8.14725 28.0939C8.01532 28.0845 7.88867 28.0383 7.78171 27.9605C7.67474 27.8827 7.59176 27.7764 7.54219 27.6538C7.49262 27.5312 7.47846 27.3971 7.50131 27.2668L8.67598 20.4148C8.75357 19.9625 8.71996 19.498 8.57803 19.0616C8.4361 18.6251 8.19012 18.2297 7.86131 17.9095L2.87998 13.0602C2.78477 12.9682 2.7173 12.8514 2.68526 12.7229C2.65322 12.5945 2.65789 12.4597 2.69875 12.3338C2.73961 12.2079 2.815 12.096 2.91635 12.0108C3.01769 11.9257 3.14092 11.8707 3.27198 11.8522L10.1586 10.8455C10.6123 10.7795 11.0432 10.6043 11.4141 10.3348C11.785 10.0654 12.0849 9.70988 12.288 9.29885L15.3666 3.06018Z" stroke-width="3" stroke-linecap="round" stroke-linejoin="round"/>
        </g>
    </symbol>

    <symbol id="facebook-icon" viewBox="0 0 40 40" fill="none">
        <g>
            <path d="M30 3.3335H25C22.7899 3.3335 20.6703 4.21147 19.1075 5.77427C17.5447 7.33708 16.6667 9.45669 16.6667 11.6668V16.6668H11.6667V23.3335H16.6667V36.6668H23.3334V23.3335H28.3334L30 16.6668H23.3334V11.6668C23.3334 11.2248 23.5089 10.8009 23.8215 10.4883C24.1341 10.1758 24.558 10.0002 25 10.0002H30V3.3335Z"  stroke-width="2" stroke-linecap="round" stroke-linejoin="round"/>
        </g>
    </symbol>

    <symbol id="instagram-icon" viewBox="0 0 36 36" fill="none">
        <g>
            <path d="M26.8333 8.5H26.85M9.33333 1H26C30.6024 1 34.3333 4.73096 34.3333 9.33333V26C34.3333 30.6024 30.6024 34.3333 26 34.3333H9.33333C4.73096 34.3333 1 30.6024 1 26V9.33333C1 4.73096 4.73096 1 9.33333 1ZM24.3333 16.6167C24.539 18.0037 24.3021 19.4204 23.6563 20.665C23.0104 21.9097 21.9886 22.919 20.736 23.5495C19.4835 24.1799 18.0641 24.3993 16.6796 24.1766C15.2952 23.9538 14.0163 23.3001 13.0247 22.3086C12.0332 21.3171 11.3796 20.0381 11.1568 18.6537C10.934 17.2693 11.1534 15.8498 11.7839 14.5973C12.4143 13.3448 13.4236 12.3229 14.6683 11.6771C15.913 11.0312 17.3296 10.7943 18.7167 11C20.1315 11.2098 21.4414 11.8691 22.4528 12.8805C23.4642 13.8919 24.1235 15.2018 24.3333 16.6167Z" stroke-width="2" stroke-linecap="round" stroke-linejoin="round"/>
        </g>
    </symbol>

    <symbol id="youtube-icon" viewBox="0 0 40 40" fill="none">
        <g>
            <path d="M4.16668 28.3333C3.00238 22.8388 3.00238 17.1612 4.16668 11.6667C4.31966 11.1087 4.61524 10.6001 5.02436 10.191C5.43347 9.7819 5.94203 9.48631 6.50001 9.33333C15.4391 7.85243 24.5609 7.85243 33.5 9.33333C34.058 9.48631 34.5666 9.7819 34.9757 10.191C35.3848 10.6001 35.6804 11.1087 35.8333 11.6667C36.9976 17.1612 36.9976 22.8388 35.8333 28.3333C35.6804 28.8913 35.3848 29.3999 34.9757 29.809C34.5666 30.2181 34.058 30.5137 33.5 30.6667C24.561 32.1479 15.4391 32.1479 6.50001 30.6667C5.94203 30.5137 5.43347 30.2181 5.02436 29.809C4.61524 29.3999 4.31966 28.8913 4.16668 28.3333Z" stroke-width="2" stroke-linecap="round" stroke-linejoin="round"/>
            <path d="M16.6667 25L25 20L16.6667 15V25Z" stroke-width="2" stroke-linecap="round" stroke-linejoin="round"/>
        </g>
    </symbol>

    <symbol id="move-up-icon" viewBox="0 0 60 60" fill="none">
        <g>
            <path d="M20 15L30 5M30 5L40 15M30 5V55" stroke-width="2" stroke-linecap="round" stroke-linejoin="round"/>
        </g>
    </symbol>
</svg>